Coordinates
version=1
nRows=6
nColumns=46
inDegrees=yes

Units are S.I. units (second, meters, Newtons, ...)
Angles are in degrees.

endheader
time	pelvis_tilt	pelvis_list	pelvis_rotation	pelvis_tx	pelvis_ty	pelvis_tz	bb_angle	bb_tx	bb_ty	bb_tz	hip_flexion_r	hip_adduction_r	hip_rotation_r	knee_angle_r	knee_angle_r_beta	ankle_angle_r	subtalar_angle_r	mtp_angle_r	crank_angle_r	hip_flexion_l	hip_adduction_l	hip_rotation_l	knee_angle_l	knee_angle_l_beta	ankle_angle_l	subtalar_angle_l	mtp_angle_l	crank_angle_l	lumbar_extension	lumbar_bending	lumbar_rotation	arm_flex_r	arm_add_r	arm_rot_r	elbow_flex_r	pro_sup_r	wrist_flex_r	wrist_dev_r	arm_flex_l	arm_add_l	arm_rot_l	elbow_flex_l	pro_sup_l	wrist_flex_l	wrist_dev_l
      0.00000000	    -51.07476996	     26.51040474	      9.77012456	      0.05832218	      0.98497195	     -0.26033431	      0.00000000	      0.50000000	      0.00000000	      0.25000000	     94.32354547	    -18.25663981	     25.90293489	     66.34858581	      1.15800128	     24.53774039	      4.61403420	      0.00000000	      0.00000000	    119.92214719	    -10.05446855	    -26.16144111	     96.34131643	      1.68147318	     24.41669181	     -6.71103199	      0.00000000	      0.00000000	    -89.95228791	     32.19200660	     82.46177745	      8.73230414	   -119.94409923	    -72.74447069	     42.19666052	     12.85820903	      0.00000000	      0.00000000	     65.04291712	     89.95080560	     45.93083434	     51.01171413	      8.43410770	      0.00000000	      0.00000000
      0.00500000	    -51.08728967	     26.53230178	      9.79402474	      0.05837557	      0.98496816	     -0.26033544	      0.00000000	      0.50000000	      0.00000000	      0.25000000	     94.33591446	    -18.27151883	     25.94527063	     66.34675698	      1.15796936	     24.53883943	      4.61468936	      0.00000000	      0.00000000	    119.92168681	    -10.05113742	    -26.19807588	     96.34796038	      1.68158914	     24.42345142	     -6.70813515	      0.00000000	      0.00000000	    -89.95205860	     32.20246197	     82.43661078	      8.72912722	   -119.94418193	    -72.74497281	     42.20267014	     12.85987125	      0.00000000	      0.00000000	     65.07643910	     89.95076616	     45.93606405	     51.00432273	      8.43511976	      0.00000000	      0.00000000
      0.01000000	    -51.08484240	     26.49738881	      9.78477852	      0.05839434	      0.98497757	     -0.26030423	      0.00000000	      0.50000000	      0.00000000	      0.25000000	     94.34098530	    -18.27140434	     25.86314054	     66.37333300	      1.15843320	     24.54571755	      4.61421740	      0.00000000	      0.00000000	    119.92283389	    -10.03553430	    -26.14392313	     96.32945353	      1.68126613	     24.41172297	     -6.70962112	      0.00000000	      0.00000000	    -89.95255821	     32.16994729	     82.42421258	      8.73214680	   -119.94398313	    -72.75437210	     42.22921279	     12.86718805	      0.00000000	      0.00000000	     65.07668408	     89.95076027	     45.89767484	     51.01115809	      8.44887846	      0.00000000	      0.00000000
      0.01500000	    -51.11115141	     26.51772245	      9.82015327	      0.05850700	      0.98502918	     -0.26024738	      0.00000000	      0.50000000	      0.00000000	      0.25000000	     94.34553062	    -18.28302260	     25.92273002	     66.36605315	      1.15830614	     24.54283812	      4.61276773	      0.00000000	      0.00000000	    119.92186578	    -10.05557364	    -26.19310261	     96.33841566	      1.68142255	     24.41410488	     -6.70007758	      0.00000000	      0.00000000	    -89.95228812	     32.19227332	     82.40058966	      8.72867022	   -119.94410576	    -72.75475151	     42.22972592	     12.86773288	      0.00000000	      0.00000000	     65.11029330	     89.95070048	     45.90327104	     51.00114332	      8.44901636	      0.00000000	      0.00000000
      0.02000000	    -51.13339876	     26.54041652	      9.84965044	      0.05858407	      0.98503163	     -0.26019466	      0.00000000	      0.50000000	      0.00000000	      0.25000000	     94.36418578	    -18.29192790	     25.96612102	     66.36995914	      1.15837431	     24.54129412	      4.61066003	      0.00000000	      0.00000000	    119.92178459	    -10.05677337	    -26.22995095	     96.34395391	      1.68151921	     24.41449807	     -6.69001038	      0.00000000	      0.00000000	    -89.95215292	     32.19549870	     82.37244364	      8.72609144	   -119.94421022	    -72.75562057	     42.23440229	     12.86908344	      0.00000000	      0.00000000	     65.13990082	     89.95068235	     45.90461296	     50.99532690	      8.45022517	      0.00000000	      0.00000000
      0.02500000	    -51.13261971	     26.51418297	      9.82911768	      0.05857766	      0.98504437	     -0.26018666	      0.00000000	      0.50000000	      0.00000000	      0.25000000	     94.37284046	    -18.28583015	     25.88674425	     66.38232777	      1.15859018	     24.54777073	      4.59334659	      0.00000000	      0.00000000	    119.92319903	    -10.05398013	    -26.18416518	     96.31750487	      1.68105759	     24.38058698	     -6.66822694	      0.00000000	      0.00000000	    -89.95280149	     32.12848499	     82.30747165	      8.73194750	   -119.94400509	    -72.76685913	     42.25893418	     12.87583494	      0.00000000	      0.00000000	     65.12778616	     89.95068501	     45.85367703	     51.01182979	      8.46563665	      0.00000000	      0.00000000
